<svg xmlns:inkscape="http://www.inkscape.org/namespaces/inkscape" xmlns:sodipodi="http://sodipodi.sourceforge.net/DTD/sodipodi-0.dtd" xmlns:xlink="http://www.w3.org/1999/xlink" xmlns="http://www.w3.org/2000/svg" xmlns:svg="http://www.w3.org/2000/svg" id="svg16" width="128" height="128" viewBox="0 0 128 128" sodipodi:docname="service_icon_sc.svg" inkscape:version="1.1.2 (b8e25be833, 2022-02-05)"><defs id="defs20"><linearGradient inkscape:collect="always" xlink:href="#linearGradient6232" id="linearGradient77403" x1="151.9012" y1="232.3035" x2="32.800777" y2="475.32022" gradientUnits="userSpaceOnUse"></linearGradient><linearGradient inkscape:collect="always" id="linearGradient6232"><stop style="stop-color:#009d8b;stop-opacity:1" offset="0" id="stop6228"></stop><stop style="stop-color:#8033d9;stop-opacity:1" offset="0.48901469" id="stop30653"></stop><stop style="stop-color:#d98dda;stop-opacity:1" offset="1" id="stop30587"></stop></linearGradient></defs><g inkscape:groupmode="layer" inkscape:label="Image" id="g22"><g id="g1768" transform="matrix(0.32053682,0,0,0.32053682,43.485643,43.485644)"><path sodipodi:type="star" style="opacity:1;fill:url(#linearGradient77403);fill-opacity:1;fill-rule:evenodd;stroke:none;stroke-width:1.88976;stroke-linecap:round;stroke-linejoin:round;stroke-opacity:1" id="path55988" inkscape:flatsided="true" sodipodi:sides="6" sodipodi:cx="89.122543" sodipodi:cy="337.39249" sodipodi:r1="108.96659" sodipodi:r2="94.367836" sodipodi:arg1="1.5707963" sodipodi:arg2="2.0943951" inkscape:rounded="0.08" inkscape:randomized="0" transform="matrix(1.7869248,0,0,1.7869248,-95.255283,-538.895)" d="m 89.122546,446.35908 c -8.717327,0 -90.00917323,-46.93387 -94.3678371,-54.4833 -4.3586638,-7.54942 -4.3586663,-101.41716 -2.9e-6,-108.96659 4.35866344,-7.54942 85.650507,-54.48329 94.367834,-54.48329 8.717328,0 90.00917,46.93386 94.36784,54.48329 4.35866,7.54943 4.35866,101.41716 0,108.96659 -4.35866,7.54943 -85.650506,54.4833 -94.367834,54.4833 z" inkscape:transform-center-y="-3.371428e-06"></path><circle style="fill:none;fill-opacity:1;fill-rule:evenodd;stroke:#ffffff;stroke-width:3.77953;stroke-linecap:round;stroke-linejoin:round;stroke-miterlimit:4;stroke-dasharray:none;stroke-opacity:1" id="path80207" cx="64" cy="64" r="126.0383"></circle><g id="g1758" transform="translate(638.9329,269.34282)"><path id="path78496" style="opacity:0.966197;fill:#ffffff;fill-opacity:1;fill-rule:evenodd;stroke-width:1.70297;stroke-linecap:round;stroke-linejoin:round" d="m -499.43011,-230.74155 a 17.688092,17.688092 0 0 0 -18.35127,-17.00043 17.688092,17.688092 0 0 0 -10.17763,3.72136 6.5330722,6.755889 13.419442 0 1 -5.80607,-2.13656 6.5330722,6.755889 13.419442 0 1 -1.4778,-5.85642 21.034488,21.034488 0 0 0 3.03957,-11.71997 21.034488,21.034488 0 0 0 -21.82064,-20.21624 21.034488,21.034488 0 0 0 -20.21621,21.8225 21.034488,21.034488 0 0 0 21.8225,20.21612 21.034488,21.034488 0 0 0 11.66125,-4.07576 6.5330722,6.755889 0.10685811 0 1 6.08545,0.73625 6.5330722,6.755889 0.10685811 0 1 2.77474,5.50212 17.688092,17.688092 0 0 0 -2.88385,10.35784 17.688092,17.688092 0 0 0 18.34949,17.00046 17.688092,17.688092 0 0 0 17.00043,-18.35123 z m -33.44459,-8.43239 c -0.008,-0.002 -0.0265,-0.008 -0.0401,-0.008 -9.5e-4,0.002 -3.1e-4,0.003 1.9e-4,0.008 0.0113,10e-4 0.0265,0.002 0.0416,0.008 z m -1.75374,-1.78242 -0.0499,-0.034 c -0.003,-3e-4 -0.008,1.5e-4 -0.008,-0.003 0.008,0.008 0.0113,0.0189 0.0227,0.0265 0.0113,0.003 0.0265,0.008 0.0401,0.008 z m -1.91441,-1.1017 -0.002,4e-5 c -0.008,0.002 -0.0227,6e-4 -0.0227,0.003 0.008,0.008 0.0227,0.008 0.0265,0.0189 -1.9e-4,-0.008 0.001,-0.0113 0.002,-0.0227 z m -3.36876,1.58548 c -0.0189,0.003 -0.042,0.008 -0.0612,0.008 0.0227,-0.008 0.0416,-0.008 0.0612,-0.008 z"></path><path id="path80572" style="opacity:0.966197;fill:#ffffff;fill-opacity:1;fill-rule:evenodd;stroke-width:1.27465;stroke-linecap:round;stroke-linejoin:round" d="m -561.14946,-165.80397 a 13.239246,13.239246 0 0 0 -16.26516,9.27496 13.239246,13.239246 0 0 0 0.36661,8.10274 5.0566719,4.8898972 30.914348 0 1 -2.83166,3.66402 5.0566719,4.8898972 30.914348 0 1 -4.51313,-0.26267 15.743969,15.743969 0 0 0 -7.68253,-4.80696 15.743969,15.743969 0 0 0 -19.34148,11.0281 15.743969,15.743969 0 0 0 11.02937,19.34184 15.743969,15.743969 0 0 0 19.34183,-11.02941 15.743969,15.743969 0 0 0 -0.28573,-9.24163 5.0566719,4.8898972 17.601764 0 1 1.8949,-4.17846 5.0566719,4.8898972 17.601764 0 1 4.5521,-0.74282 13.239246,13.239246 0 0 0 6.74513,4.38931 13.239246,13.239246 0 0 0 16.26479,-9.27371 13.239246,13.239246 0 0 0 -9.27496,-16.2652 z m -13.54492,21.97742 c -0.003,0.004 -0.008,0.0189 -0.0151,0.0265 10e-4,0.001 0.002,9.1e-4 0.004,0.001 0.002,-0.008 0.008,-0.0189 0.0113,-0.0302 z m -1.667,0.85085 -0.0378,0.0265 c -8.4e-4,0.002 -0.002,0.004 -0.003,0.004 0.008,-0.004 0.0189,-0.004 0.0265,-0.008 0.008,-0.008 0.0113,-0.0189 0.0189,-0.0265 z m -1.21727,1.11874 -3.4e-4,10e-4 c -9.5e-4,0.004 -0.004,0.0151 -0.004,0.0151 0.008,-0.004 0.008,-0.0151 0.0189,-0.0151 -0.004,-9.9e-4 -0.008,-0.002 -0.0113,-0.004 z m 0.37379,2.76162 c -4.5e-4,0.0151 -0.004,0.0302 -0.0113,0.0446 4.5e-4,-0.0151 0.004,-0.0302 0.0113,-0.0446 z"></path><circle style="opacity:0.998235;fill:#f9f9f9;fill-rule:evenodd;stroke-width:2.25419;stroke-linecap:round;stroke-linejoin:round" id="circle80574" cx="-637.95203" cy="-218.92558" r="27.842987"></circle><circle style="opacity:0.998235;fill:#f9f9f9;fill-rule:evenodd;stroke-width:0.796452;stroke-linecap:round;stroke-linejoin:round" id="circle80576" cx="-493.90829" cy="-152.9055" r="9.8375139"></circle><circle style="opacity:0.998235;fill:#f9f9f9;fill-rule:evenodd;stroke-width:0.523128;stroke-linecap:round;stroke-linejoin:round" id="circle80578" cx="-612.81946" cy="-285.32074" r="6.4614868"></circle></g></g></g></svg>