<svg xmlns:inkscape="http://www.inkscape.org/namespaces/inkscape" xmlns:sodipodi="http://sodipodi.sourceforge.net/DTD/sodipodi-0.dtd" xmlns:xlink="http://www.w3.org/1999/xlink" xmlns="http://www.w3.org/2000/svg" xmlns:svg="http://www.w3.org/2000/svg" id="svg16" width="128" height="128" viewBox="0 0 128 128" sodipodi:docname="service_icon_seq.svg" inkscape:version="1.1.2 (b8e25be833, 2022-02-05)"><defs id="defs20"><linearGradient inkscape:collect="always" xlink:href="#linearGradient6232" id="linearGradient77403" x1="151.9012" y1="232.3035" x2="32.800777" y2="475.32022" gradientUnits="userSpaceOnUse"></linearGradient><linearGradient inkscape:collect="always" id="linearGradient6232"><stop style="stop-color:#009d8b;stop-opacity:1" offset="0" id="stop6228"></stop><stop style="stop-color:#8033d9;stop-opacity:1" offset="0.48901469" id="stop30653"></stop><stop style="stop-color:#d98dda;stop-opacity:1" offset="1" id="stop30587"></stop></linearGradient></defs><g inkscape:groupmode="layer" inkscape:label="Image" id="g22"><path sodipodi:type="star" style="opacity:1;fill:url(#linearGradient77403);fill-opacity:1;fill-rule:evenodd;stroke:none;stroke-width:1.88976;stroke-linecap:round;stroke-linejoin:round;stroke-opacity:1" id="path55988" inkscape:flatsided="true" sodipodi:sides="6" sodipodi:cx="89.122543" sodipodi:cy="337.39249" sodipodi:r1="108.96659" sodipodi:r2="94.367836" sodipodi:arg1="1.5707963" sodipodi:arg2="2.0943951" inkscape:rounded="0.08" inkscape:randomized="0" transform="matrix(0.57277519,0,0,0.57277519,12.952817,-129.25005)" inkscape:transform-center-y="-3.371428e-06" d="m 89.122546,446.35908 c -8.717327,0 -90.00917323,-46.93387 -94.3678371,-54.4833 -4.3586638,-7.54942 -4.3586663,-101.41716 -2.9e-6,-108.96659 4.35866344,-7.54942 85.650507,-54.48329 94.367834,-54.48329 8.717328,0 90.00917,46.93386 94.36784,54.48329 4.35866,7.54943 4.35866,101.41716 0,108.96659 -4.35866,7.54943 -85.650506,54.4833 -94.367834,54.4833 z"></path><circle style="fill:none;fill-opacity:1;fill-rule:evenodd;stroke:#ffffff;stroke-width:1.21148;stroke-linecap:round;stroke-linejoin:round;stroke-miterlimit:4;stroke-dasharray:none;stroke-opacity:1" id="path80207" cx="64" cy="64" r="40.399918"></circle><g id="g1758" transform="matrix(0.32053682,0,0,0.32053682,397.38127,92.957821)"><path id="path78496" style="opacity:0.966197;fill:#ffffff;fill-opacity:1;fill-rule:evenodd;stroke-width:1.70297;stroke-linecap:round;stroke-linejoin:round" d="m -499.43011,-230.74155 a 17.688092,17.688092 0 0 0 -18.35127,-17.00043 17.688092,17.688092 0 0 0 -10.17763,3.72136 6.5330722,6.755889 13.419442 0 1 -5.80607,-2.13656 6.5330722,6.755889 13.419442 0 1 -1.4778,-5.85642 21.034488,21.034488 0 0 0 3.03957,-11.71997 21.034488,21.034488 0 0 0 -21.82064,-20.21624 21.034488,21.034488 0 0 0 -20.21621,21.8225 21.034488,21.034488 0 0 0 21.8225,20.21612 21.034488,21.034488 0 0 0 11.66125,-4.07576 6.5330722,6.755889 0.10685811 0 1 6.08545,0.73625 6.5330722,6.755889 0.10685811 0 1 2.77474,5.50212 17.688092,17.688092 0 0 0 -2.88385,10.35784 17.688092,17.688092 0 0 0 18.34949,17.00046 17.688092,17.688092 0 0 0 17.00043,-18.35123 z m -33.44459,-8.43239 c -0.008,-0.002 -0.0265,-0.008 -0.0401,-0.008 -9.5e-4,0.002 -3.1e-4,0.003 1.9e-4,0.008 0.0113,10e-4 0.0265,0.002 0.0416,0.008 z m -1.75374,-1.78242 -0.0499,-0.034 c -0.003,-3e-4 -0.008,1.5e-4 -0.008,-0.003 0.008,0.008 0.0113,0.0189 0.0227,0.0265 0.0113,0.003 0.0265,0.008 0.0401,0.008 z m -1.91441,-1.1017 -0.002,4e-5 c -0.008,0.002 -0.0227,6e-4 -0.0227,0.003 0.008,0.008 0.0227,0.008 0.0265,0.0189 -1.9e-4,-0.008 0.001,-0.0113 0.002,-0.0227 z m -3.36876,1.58548 c -0.0189,0.003 -0.042,0.008 -0.0612,0.008 0.0227,-0.008 0.0416,-0.008 0.0612,-0.008 z"></path><path id="path80572" style="opacity:0.966197;fill:#ffffff;fill-opacity:1;fill-rule:evenodd;stroke-width:1.27465;stroke-linecap:round;stroke-linejoin:round" d="m -561.14946,-165.80397 a 13.239246,13.239246 0 0 0 -16.26516,9.27496 13.239246,13.239246 0 0 0 0.36661,8.10274 5.0566719,4.8898972 30.914348 0 1 -2.83166,3.66402 5.0566719,4.8898972 30.914348 0 1 -4.51313,-0.26267 15.743969,15.743969 0 0 0 -7.68253,-4.80696 15.743969,15.743969 0 0 0 -19.34148,11.0281 15.743969,15.743969 0 0 0 11.02937,19.34184 15.743969,15.743969 0 0 0 19.34183,-11.02941 15.743969,15.743969 0 0 0 -0.28573,-9.24163 5.0566719,4.8898972 17.601764 0 1 1.8949,-4.17846 5.0566719,4.8898972 17.601764 0 1 4.5521,-0.74282 13.239246,13.239246 0 0 0 6.74513,4.38931 13.239246,13.239246 0 0 0 16.26479,-9.27371 13.239246,13.239246 0 0 0 -9.27496,-16.2652 z m -13.54492,21.97742 c -0.003,0.004 -0.008,0.0189 -0.0151,0.0265 10e-4,0.001 0.002,9.1e-4 0.004,0.001 0.002,-0.008 0.008,-0.0189 0.0113,-0.0302 z m -1.667,0.85085 -0.0378,0.0265 c -8.4e-4,0.002 -0.002,0.004 -0.003,0.004 0.008,-0.004 0.0189,-0.004 0.0265,-0.008 0.008,-0.008 0.0113,-0.0189 0.0189,-0.0265 z m -1.21727,1.11874 -3.4e-4,10e-4 c -9.5e-4,0.004 -0.004,0.0151 -0.004,0.0151 0.008,-0.004 0.008,-0.0151 0.0189,-0.0151 -0.004,-9.9e-4 -0.008,-0.002 -0.0113,-0.004 z m 0.37379,2.76162 c -4.5e-4,0.0151 -0.004,0.0302 -0.0113,0.0446 4.5e-4,-0.0151 0.004,-0.0302 0.0113,-0.0446 z"></path><circle style="opacity:0.998235;fill:#f9f9f9;fill-rule:evenodd;stroke-width:2.25419;stroke-linecap:round;stroke-linejoin:round" id="circle80574" cx="-637.95203" cy="-218.92558" r="27.842987"></circle><circle style="opacity:0.998235;fill:#f9f9f9;fill-rule:evenodd;stroke-width:0.796452;stroke-linecap:round;stroke-linejoin:round" id="circle80576" cx="-493.90829" cy="-152.9055" r="9.8375139"></circle><circle style="opacity:0.998235;fill:#f9f9f9;fill-rule:evenodd;stroke-width:0.523128;stroke-linecap:round;stroke-linejoin:round" id="circle80578" cx="-612.81946" cy="-285.32074" r="6.4614868"></circle></g><path d="m 46.668712,82.379173 c -0.434143,0.250656 -0.942884,0.181739 -1.136709,-0.153987 l -4.678214,-8.102898 c -0.193786,-0.335655 7.83e-4,-0.810757 0.435005,-1.061413 0.434143,-0.250656 0.942971,-0.181598 1.136717,0.153986 l 4.678167,8.10282 c 0.193833,0.335725 -7.83e-4,0.810836 -0.434966,1.061492 z M 72.341416,50.770186 c -0.06521,0.191708 -0.04718,0.37251 0.03535,0.515416 0.09717,0.168312 0.283691,0.283936 0.529065,0.302352 0.453572,0.0342 0.936379,-0.276519 1.078444,-0.693865 0.255194,-0.750531 0.631613,-1.479023 1.109482,-2.162667 l 4.305926,7.458076 c 0.193825,0.335718 0.702559,0.404634 1.13671,0.153978 0.434151,-0.250655 0.62883,-0.725695 0.435005,-1.061413 l -4.62752,-8.015107 c 0.643706,-0.625626 1.380923,-1.18447 2.190019,-1.651601 l 1.309742,-0.756176 1.520425,2.63346 c 0.193794,0.335654 0.702567,0.404639 1.136718,0.153984 0.434151,-0.250656 0.628744,-0.725846 0.435005,-1.061418 l -1.520433,-2.633461 2.357682,-1.361207 c 0.434151,-0.250656 0.628752,-0.725839 0.435013,-1.061412 -0.193794,-0.335654 -0.702575,-0.404639 -1.136718,-0.153983 l -5.239241,3.024874 c -2.629045,1.517772 -4.630302,3.839588 -5.490664,6.370204 z m 10.426071,-0.846778 4.678167,8.102827 c 0.193833,0.335726 0.702559,0.404627 1.13671,0.153971 0.434151,-0.250656 0.628838,-0.72568 0.435005,-1.061406 l -4.678167,-8.102826 c -0.193786,-0.335653 -0.702567,-0.404639 -1.13671,-0.153983 -0.434151,0.250655 -0.628752,0.725838 -0.435005,1.061417 z m -6.020223,14.786413 c 0.120308,-0.418867 -0.155107,-0.769735 -0.61473,-0.784109 -0.459906,-0.01442 -0.930078,0.313263 -1.050465,0.731769 -0.643134,2.238315 -2.341278,4.289506 -4.659004,5.627644 l -1.309827,0.756231 -3.39168,-5.874553 c -0.193825,-0.335718 -0.702567,-0.404634 -1.13671,-0.153978 -0.434151,0.250656 -0.628838,0.725695 -0.435013,1.061413 l 3.39168,5.874553 -1.309844,0.756239 c -0.822796,0.47504 -1.673753,0.83083 -2.524812,1.071712 L 56.739754,61.709366 c -0.193794,-0.335655 -0.702567,-0.404642 -1.136718,-0.153987 -0.434143,0.250656 -0.628752,0.725837 -0.435005,1.061414 l 6.644327,11.508317 c -2.791809,0.237489 -5.34066,-0.780763 -6.569219,-2.908685 L 53.371853,67.97526 C 51.114736,64.06581 45.165397,63.259903 40.109792,66.178761 l -5.239233,3.02487 c -0.434151,0.250656 -0.628752,0.725845 -0.435013,1.061414 0.193786,0.335647 0.702575,0.404642 1.136718,0.153986 l 2.357682,-1.361212 1.520433,2.633466 c 0.193786,0.335647 0.702567,0.404634 1.136718,0.153978 0.434143,-0.250655 0.628744,-0.725844 0.435005,-1.061413 l -1.520433,-2.633466 1.309836,-0.756231 c 0.822796,-0.47504 1.673753,-0.83083 2.524812,-1.071712 l 6.967105,12.067377 c 0.193833,0.335725 0.702575,0.404642 1.136718,0.153986 0.43415,-0.250656 0.628838,-0.725696 0.435013,-1.061422 L 45.230817,65.974065 c 2.791857,-0.23741 5.340668,0.780763 6.569267,2.908771 l 1.871285,3.24115 c 2.257125,3.909458 8.206457,4.715364 13.262054,1.796514 l 4.191394,-2.419905 c 2.797084,-1.614893 4.84652,-4.090108 5.622447,-6.790774 z m -17.860508,-7.751309 3.859493,6.68484 c 0.193786,0.335648 0.702575,0.404635 1.136726,0.153979 0.434143,-0.250656 0.628736,-0.725845 0.434997,-1.061414 l -3.859493,-6.68484 m -1.571723,0.907435 2.881558,-1.663666 c 0.8228,-0.475043 1.673754,-0.830838 2.524821,-1.07172 L 71.26024,66.29051 c 0.193825,0.335718 0.702567,0.404635 1.136717,0.153979 0.434151,-0.250656 0.628831,-0.725696 0.435006,-1.061414 L 66.187592,53.87468 c 2.791857,-0.23741 5.34066,0.780763 6.569266,2.908771 l 1.871278,3.241149 c 2.257125,3.909459 8.206465,4.715365 13.262069,1.796507 l 5.23923,-3.02487 c 0.434151,-0.250656 0.628799,-0.725766 0.434966,-1.061492 h -2.3e-5 C 93.370545,57.39902 92.861811,57.330111 92.42766,57.580767 l -5.23923,3.024877 c -0.822804,0.47504 -1.673761,0.830823 -2.52482,1.071713 l -2.288891,-3.964479 c -0.193833,-0.335726 -0.702575,-0.404642 -1.136718,-0.153986 -0.434151,0.250656 -0.628838,0.725696 -0.435005,1.061413 l 1.96616,3.405498 C 79.977339,62.263291 77.428497,61.24504 76.199937,59.11711 l -1.871285,-3.241149 c -2.257118,-3.909452 -8.206465,-4.715373 -13.26207,-1.796523 l -4.191394,2.419906 c -2.79688,1.614775 -4.846159,4.089818 -5.622509,6.790429 -0.05141,0.179215 -0.03041,0.346094 0.04663,0.479444 0.102775,0.178009 0.305402,0.296373 0.568315,0.304548 0.459804,0.0145 0.93011,-0.313185 1.050457,-0.731778 0.643212,-2.238158 2.341306,-4.289221 4.658839,-5.627244 l 1.309836,-0.756231 m -3.096439,19.850804 c 0.120308,-0.418867 -0.155107,-0.769727 -0.614731,-0.784109 -0.459905,-0.01442 -0.93007,0.313263 -1.050464,0.731778 -0.643134,2.238314 -2.341278,4.289498 -4.658902,5.62758 l -5.239233,3.024878 c -0.434151,0.250656 -0.628838,0.725688 -0.435013,1.061413 0.193833,0.335726 0.702575,0.404635 1.136718,0.153979 l 5.239241,-3.02487 c 2.797021,-1.614767 4.846456,-4.089975 5.622384,-6.790649 z" id="path65" style="fill:#ffffff;stroke-width:0.0987097" sodipodi:nodetypes="cccccccccccccsccsccsccssccccscsccsscccsccsccsccsccsssssscssscsccsccssssccsscccsccsccsssssssccssccssssccccsccccsssccc"></path><g id="g67" transform="matrix(0.28097758,0,0,0.28097758,199.89534,26.065952)"></g><g id="g69" transform="matrix(0.28097758,0,0,0.28097758,199.89534,26.065952)"></g><g id="g71" transform="matrix(0.28097758,0,0,0.28097758,199.89534,26.065952)"></g><g id="g73" transform="matrix(0.28097758,0,0,0.28097758,199.89534,26.065952)"></g><g id="g75" transform="matrix(0.28097758,0,0,0.28097758,199.89534,26.065952)"></g><g id="g77" transform="matrix(0.28097758,0,0,0.28097758,199.89534,26.065952)"></g><g id="g79" transform="matrix(0.28097758,0,0,0.28097758,199.89534,26.065952)"></g><g id="g81" transform="matrix(0.28097758,0,0,0.28097758,199.89534,26.065952)"></g><g id="g83" transform="matrix(0.28097758,0,0,0.28097758,199.89534,26.065952)"></g><g id="g85" transform="matrix(0.28097758,0,0,0.28097758,199.89534,26.065952)"></g><g id="g87" transform="matrix(0.28097758,0,0,0.28097758,199.89534,26.065952)"></g><g id="g89" transform="matrix(0.28097758,0,0,0.28097758,199.89534,26.065952)"></g><g id="g91" transform="matrix(0.28097758,0,0,0.28097758,199.89534,26.065952)"></g><g id="g93" transform="matrix(0.28097758,0,0,0.28097758,199.89534,26.065952)"></g><g id="g95" transform="matrix(0.28097758,0,0,0.28097758,199.89534,26.065952)"></g></g></svg>